<?xml version="1.0" encoding="utf-8"?>
<!-- Generator: Adobe Illustrator 21.0.2, SVG Export Plug-In . SVG Version: 6.00 Build 0)  -->
<svg version="1.1" id="Layer_1" xmlns="http://www.w3.org/2000/svg" xmlns:xlink="http://www.w3.org/1999/xlink" x="0px" y="0px"
	 viewBox="0 0 171 150" style="enable-background:new 0 0 171 150;" xml:space="preserve">
<style type="text/css">
	.st0{opacity:0.65;}
	.st1{fill:#FFFFFF;}
</style>
<g class="st0">
	<path class="st1" d="M9,146.8c-1.6,0-2.3-2.2-2.3-6.5c0-3.8-0.1-9.4-0.3-16.8s-0.3-13.1-0.3-16.9c0-3.4,0-8.5-0.1-15.2
		S6,79.5,6,76.1c0-14-0.3-29.5-0.9-46.6C4.6,18.9,4.4,10.6,4.4,4.7l0.5-0.7c0.3-0.6,0.4-0.6,0.7-1C5.8,2.6,6,2.4,6.5,2.2
		C6.8,2,7.2,2,7.9,2c8.9,0,16.3,4.5,20.7,11.3s6.6,15.1,6.6,23.5c0,10.6-3.4,23.3-10.8,33.2c-3.8,5-8,8.1-12.7,9.1
		c0,6.9,0.3,17.3,0.8,30.9c0.5,13.7,0.7,24.1,0.7,30.9C13.2,144.7,12.4,146.8,9,146.8z M9,7.5c0,7.2,0.4,17.9,1.1,32.1
		s1.1,25,1.1,32.1l0.4,0.4c1.4-0.1,2.7-0.8,3.4-1.5c0.3-0.3,0.7-0.8,1.4-1.5s1-1.1,1.3-1.4c8.2-8.2,12.2-18.4,12.2-30.7
		c0-7-1.3-13.4-4.2-19.6S16.8,7.5,9,7.5z"/>
	<path class="st1" d="M58,143.8c-0.4,0-0.9,0-1.6,0.1c-0.7,0.1-1.3,0.1-1.6,0.1c-2.7,0-4.4-0.6-5.1-1.9c0-1,0.4-1.5,1.4-2.2
		c0.5-0.4,0.8-0.7,1.1-1h5.4l0.7-0.7c0-0.2,0.1-0.7,0.4-1.7c0.2-1,0.3-1.7,0.3-2.2c0-4.6-0.2-11.5-0.6-20.6s-0.7-16-0.7-20.6
		c0-4.9,0.2-12.2,0.5-22c0.3-9.7,0.5-17,0.5-21.8c0-8.5-0.3-15.8-0.9-21.8c-1.2-0.4-3.1-0.6-5.6-0.6c-0.5,0-1.2,0.1-2.2,0.2
		s-1.8,0.2-2.3,0.2c-2.4,0-3.6-1.1-3.6-3.2c0-1.1,3-2.3,4.5-2.3c3.8,0,7.2,0.1,14.2,0.7c3.5,0.3,6.3,0.9,8.6,1.7
		c2.2,0.8,3.3,1.9,3.3,3.2c0,0.4-0.2,0.8-0.5,1.5l-4.3,0.4c-1-0.7-2.8-1.1-5.4-1.1l-0.9,0.6c0.4,1.1,0.6,4.4,0.6,10
		c0,5-0.1,12.4-0.3,22.3c-0.2,10-0.3,17.4-0.3,22.4c0,4.6,0.2,11.5,0.6,20.6c0.5,9.2,0.6,16.1,0.6,20.7c0,0.3,0,1-0.1,2.4
		s-0.1,2.6-0.1,3.4c0,2.9,0.2,4.7,0.6,5.2l-0.2,0.5c0,1.2,1.4,1.8,4.1,1.8c0.6,0,1.6,0,2.8-0.1s2.1-0.1,2.8-0.1
		c3.8,0,5.6,0.9,5.6,2.7c0,2.2-1.8,3.8-4.1,3.8c-0.6,0-1.7-0.1-3.1-0.4c-1.4-0.2-2.5-0.3-3.1-0.3c-1,0-2.1,0.4-3.5,1
		c-1.4,0.7-2.4,1.1-3.2,1.1C60.2,145.7,58.5,145,58,143.8z"/>
	<path class="st1" d="M93,139.4l-0.6-0.7c0.9-2.5,1.4-5,1.4-7.7c0-2.8-0.2-6.9-0.5-12.4s-0.5-9.6-0.5-12.4c0-6.2,0.2-15.7,0.6-28.3
		s0.6-22,0.6-28.4c0-2.5-0.1-6.2-0.4-11.3c-0.3-5-0.4-8.7-0.4-11.2c0-3.6,1.5-5.3,5.4-5.3c1.4,0,2.4,0.4,3,1.2
		c0.5,0.1,2.3,0.4,5.5,0.7s5.9,0.9,8.2,1.7c4.5,1.5,4.8,3.8,0,6.6c-6.9-2.3-12-3.5-15.2-3.6l-0.9,1.1c0.1,1.7,0.2,4.5,0.2,8.1
		c0,3.2-0.1,8.1-0.4,14.6s-0.4,11.4-0.4,14.6c0,3.5,0.9,5.2,2.7,5.2c0.6,0,1.7-0.1,3.1-0.2s2.4-0.2,3.2-0.2c4.8,0,7.3,1.1,7.3,3.4
		c0,2.6-1.3,4.9-3.8,4.9c-2.1,0-3.5-0.5-4.3-1.5l-6.2-0.9h-0.8l-0.9,0.9v0.6c0.3,3.2,0.4,8.2,0.4,14.9c0,2.9-0.1,7.3-0.2,13.3
		s-0.2,10.5-0.2,13.4c0,4.9,0.2,9.9,0.6,15c0.4,5.9,2.2,7.2,8.1,7.2c0.7,0,1.8-0.1,3.4-0.2s2.8-0.2,3.6-0.2c3.7,0,5.5,0.8,5.5,2.5
		c0,2.3-2.8,3.4-8.2,3.4H96.6c-2.3,0-3.6-1.3-3.8-3.9c0-0.5,0-1.3,0.1-2.4S93,139.9,93,139.4z"/>
	<path class="st1" d="M163.5,148.9l-2.8-0.9c-3.2-3.6-7.1-21-9.6-36.7c-1.3-7.8-2.8-14.9-4.3-21.2s-3-9.5-4.3-9.5h-0.7
		c-2.8,0-4.1,0.9-4.1,2.7c0,6.9,0.6,20.6,1.7,41.2c0.5,11.3,1,17.8,1.6,19.7l-1.4,3.1h-2.8l-1.4-1.5c-2-54.3-3-93.7-3-118.4
		c0-2.7,0.1-4.1,1.4-5.9c0.6-0.8,1.6-1.3,2.8-1.3c12.2,0,21.1,6.2,21.1,18.3v13.7c0,5.1-4.1,14.6-7.3,20.7c-1.7,3-2.5,4.7-2.5,4.8
		c0,0.8,14,58.8,14.9,60.9c0.1,0.2,0.6,1.3,1.6,3.2s1.5,3.5,1.5,4.5C165.6,148,164.9,148.9,163.5,148.9z M138.4,75.5l0.4,0.4
		c4.8,0,8.8-5.7,10.7-12.8s3-13.9,3-18.3c0-5.5-0.4-8.8-1.9-13.1s-5.2-6.6-10.7-6.6c-1.5,0-2.2,3-2.2,4.9c0,5,0.1,12.7,0.4,22.8
		S138.4,70.5,138.4,75.5z"/>
</g>
</svg>
